%TF.GenerationSoftware,KiCad,Pcbnew,5.1.9-73d0e3b20d~88~ubuntu20.04.1*%
%TF.CreationDate,2021-04-01T19:01:08+02:00*%
%TF.ProjectId,fuente1,6675656e-7465-4312-9e6b-696361645f70,rev?*%
%TF.SameCoordinates,PXc1c960PYc1c960*%
%TF.FileFunction,Copper,L2,Bot*%
%TF.FilePolarity,Positive*%
%FSLAX46Y46*%
G04 Gerber Fmt 4.6, Leading zero omitted, Abs format (unit mm)*
G04 Created by KiCad (PCBNEW 5.1.9-73d0e3b20d~88~ubuntu20.04.1) date 2021-04-01 19:01:08*
%MOMM*%
%LPD*%
G01*
G04 APERTURE LIST*
%TA.AperFunction,NonConductor*%
%ADD10C,0.500000*%
%TD*%
%TA.AperFunction,ComponentPad*%
%ADD11C,3.000000*%
%TD*%
%TA.AperFunction,ComponentPad*%
%ADD12C,4.000000*%
%TD*%
%TA.AperFunction,ComponentPad*%
%ADD13R,4.000000X4.000000*%
%TD*%
%TA.AperFunction,ComponentPad*%
%ADD14R,3.000000X3.000000*%
%TD*%
%TA.AperFunction,ViaPad*%
%ADD15C,4.000000*%
%TD*%
%TA.AperFunction,Conductor*%
%ADD16C,3.500000*%
%TD*%
%TA.AperFunction,Conductor*%
%ADD17C,2.000000*%
%TD*%
G04 APERTURE END LIST*
D10*
X2956666Y-13733333D02*
X2956666Y-14923809D01*
X3670952Y-13495238D02*
X1170952Y-14328571D01*
X3670952Y-15161904D01*
X2004285Y-17066666D02*
X3670952Y-17066666D01*
X2004285Y-15995238D02*
X3313809Y-15995238D01*
X3551904Y-16114285D01*
X3670952Y-16352380D01*
X3670952Y-16709523D01*
X3551904Y-16947619D01*
X3432857Y-17066666D01*
X3670952Y-18257142D02*
X2004285Y-18257142D01*
X2480476Y-18257142D02*
X2242380Y-18376190D01*
X2123333Y-18495238D01*
X2004285Y-18733333D01*
X2004285Y-18971428D01*
X3551904Y-20757142D02*
X3670952Y-20519047D01*
X3670952Y-20042857D01*
X3551904Y-19804761D01*
X3313809Y-19685714D01*
X2361428Y-19685714D01*
X2123333Y-19804761D01*
X2004285Y-20042857D01*
X2004285Y-20519047D01*
X2123333Y-20757142D01*
X2361428Y-20876190D01*
X2599523Y-20876190D01*
X2837619Y-19685714D01*
X3670952Y-22304761D02*
X3551904Y-22066666D01*
X3313809Y-21947619D01*
X1170952Y-21947619D01*
X3670952Y-23257142D02*
X2004285Y-23257142D01*
X1170952Y-23257142D02*
X1290000Y-23138095D01*
X1409047Y-23257142D01*
X1290000Y-23376190D01*
X1170952Y-23257142D01*
X1409047Y-23257142D01*
X3670952Y-24804761D02*
X3551904Y-24566666D01*
X3432857Y-24447619D01*
X3194761Y-24328571D01*
X2480476Y-24328571D01*
X2242380Y-24447619D01*
X2123333Y-24566666D01*
X2004285Y-24804761D01*
X2004285Y-25161904D01*
X2123333Y-25400000D01*
X2242380Y-25519047D01*
X2480476Y-25638095D01*
X3194761Y-25638095D01*
X3432857Y-25519047D01*
X3551904Y-25400000D01*
X3670952Y-25161904D01*
X3670952Y-24804761D01*
X1409047Y-28495238D02*
X1290000Y-28614285D01*
X1170952Y-28852380D01*
X1170952Y-29447619D01*
X1290000Y-29685714D01*
X1409047Y-29804761D01*
X1647142Y-29923809D01*
X1885238Y-29923809D01*
X2242380Y-29804761D01*
X3670952Y-28376190D01*
X3670952Y-29923809D01*
X1170952Y-31471428D02*
X1170952Y-31709523D01*
X1290000Y-31947619D01*
X1409047Y-32066666D01*
X1647142Y-32185714D01*
X2123333Y-32304761D01*
X2718571Y-32304761D01*
X3194761Y-32185714D01*
X3432857Y-32066666D01*
X3551904Y-31947619D01*
X3670952Y-31709523D01*
X3670952Y-31471428D01*
X3551904Y-31233333D01*
X3432857Y-31114285D01*
X3194761Y-30995238D01*
X2718571Y-30876190D01*
X2123333Y-30876190D01*
X1647142Y-30995238D01*
X1409047Y-31114285D01*
X1290000Y-31233333D01*
X1170952Y-31471428D01*
X1409047Y-33257142D02*
X1290000Y-33376190D01*
X1170952Y-33614285D01*
X1170952Y-34209523D01*
X1290000Y-34447619D01*
X1409047Y-34566666D01*
X1647142Y-34685714D01*
X1885238Y-34685714D01*
X2242380Y-34566666D01*
X3670952Y-33138095D01*
X3670952Y-34685714D01*
X3670952Y-37066666D02*
X3670952Y-35638095D01*
X3670952Y-36352380D02*
X1170952Y-36352380D01*
X1528095Y-36114285D01*
X1766190Y-35876190D01*
X1885238Y-35638095D01*
X14470000Y-75255714D02*
X14470000Y-76684285D01*
X15327142Y-74970000D02*
X12327142Y-75970000D01*
X15327142Y-76970000D01*
X15041428Y-79684285D02*
X15184285Y-79541428D01*
X15327142Y-79112857D01*
X15327142Y-78827142D01*
X15184285Y-78398571D01*
X14898571Y-78112857D01*
X14612857Y-77970000D01*
X14041428Y-77827142D01*
X13612857Y-77827142D01*
X13041428Y-77970000D01*
X12755714Y-78112857D01*
X12470000Y-78398571D01*
X12327142Y-78827142D01*
X12327142Y-79112857D01*
X12470000Y-79541428D01*
X12612857Y-79684285D01*
X5365714Y-7366190D02*
X5365714Y-10413809D01*
X24415714Y-8636190D02*
X24415714Y-11683809D01*
X25939523Y-10160000D02*
X22891904Y-10160000D01*
D11*
%TO.P,D1,1*%
%TO.N,Net-(C1-Pad1)*%
X6350000Y-67310000D03*
%TO.P,D1,4*%
%TO.N,Net-(D1-Pad4)*%
X6350000Y-57010000D03*
%TO.P,D1,3*%
%TO.N,Net-(D1-Pad3)*%
X6350000Y-48710000D03*
%TO.P,D1,2*%
%TO.N,Net-(C1-Pad2)*%
X6350000Y-40370000D03*
%TD*%
%TO.P,F1,2*%
%TO.N,Net-(C1-Pad1)*%
X19050000Y-59180000D03*
%TO.P,F1,1*%
%TO.N,Net-(F1-Pad1)*%
X19050000Y-43180000D03*
%TD*%
D12*
%TO.P,C1,2*%
%TO.N,Net-(C1-Pad2)*%
X7780000Y-22860000D03*
D13*
%TO.P,C1,1*%
%TO.N,Net-(C1-Pad1)*%
X17780000Y-22860000D03*
%TD*%
D14*
%TO.P,J1,1*%
%TO.N,Net-(D1-Pad3)*%
X19050000Y-77470000D03*
%TD*%
%TO.P,J2,1*%
%TO.N,Net-(D1-Pad4)*%
X8890000Y-77470000D03*
%TD*%
%TO.P,JA1,1*%
%TO.N,Net-(F1-Pad1)*%
X17780000Y-5080000D03*
%TD*%
%TO.P,JB1,1*%
%TO.N,Net-(C1-Pad2)*%
X8890000Y-5080000D03*
%TD*%
D15*
%TO.N,*%
X2540000Y-2540000D03*
X25400000Y-2540000D03*
X2540000Y-78740000D03*
X25400000Y-78740000D03*
%TD*%
D16*
%TO.N,Net-(C1-Pad1)*%
X17520000Y-67310000D02*
X19050000Y-65780000D01*
X6350000Y-67310000D02*
X17520000Y-67310000D01*
X17780000Y-22860000D02*
X17780000Y-34290000D01*
X17780000Y-34290000D02*
X17780000Y-36830000D01*
X17780000Y-36830000D02*
X11430000Y-43180000D01*
X16005000Y-62225000D02*
X16005000Y-62735000D01*
X19050000Y-59180000D02*
X16005000Y-62225000D01*
X16005000Y-62735000D02*
X11690000Y-58420000D01*
X19050000Y-65780000D02*
X16005000Y-62735000D01*
D17*
X10160000Y-44450000D02*
X11430000Y-43180000D01*
X2540000Y-44450000D02*
X10160000Y-44450000D01*
X2540000Y-53340000D02*
X2540000Y-44450000D01*
X7620000Y-53340000D02*
X2540000Y-53340000D01*
X11690000Y-57410000D02*
X7620000Y-53340000D01*
X11690000Y-58420000D02*
X11690000Y-57410000D01*
D16*
%TO.N,Net-(C1-Pad2)*%
X10320000Y-36400000D02*
X6350000Y-40370000D01*
X8890000Y-21430000D02*
X10320000Y-22860000D01*
X10320000Y-22860000D02*
X10320000Y-36400000D01*
X8890000Y-5080000D02*
X8890000Y-21430000D01*
%TO.N,Net-(D1-Pad3)*%
X24130000Y-71120000D02*
X19050000Y-76200000D01*
X22860000Y-54610000D02*
X24130000Y-55880000D01*
X19050000Y-76200000D02*
X19050000Y-77470000D01*
X17780000Y-54610000D02*
X22860000Y-54610000D01*
X24130000Y-55880000D02*
X24130000Y-71120000D01*
X11880000Y-48710000D02*
X17780000Y-54610000D01*
X6350000Y-48710000D02*
X11880000Y-48710000D01*
%TO.N,Net-(D1-Pad4)*%
X2950000Y-58010000D02*
X2540000Y-58420000D01*
D17*
X2950000Y-58010000D02*
X1270000Y-59690000D01*
X1270000Y-59690000D02*
X1270000Y-72390000D01*
D16*
X6350000Y-73660000D02*
X3810000Y-73660000D01*
X3810000Y-73660000D02*
X2540000Y-72390000D01*
X3950000Y-57010000D02*
X2950000Y-58010000D01*
X6350000Y-57010000D02*
X3950000Y-57010000D01*
X6350000Y-74930000D02*
X8890000Y-77470000D01*
X6350000Y-73660000D02*
X6350000Y-74930000D01*
%TO.N,Net-(F1-Pad1)*%
X19050000Y-43180000D02*
X24130000Y-43180000D01*
X24130000Y-43180000D02*
X25400000Y-41910000D01*
X20320000Y-5080000D02*
X20320000Y-15240000D01*
X20320000Y-15240000D02*
X21590000Y-15240000D01*
X21590000Y-15240000D02*
X25400000Y-19050000D01*
X25400000Y-19050000D02*
X25400000Y-41910000D01*
X17780000Y-5080000D02*
X20320000Y-5080000D01*
%TD*%
M02*
