%TF.GenerationSoftware,KiCad,Pcbnew,5.1.9-73d0e3b20d~88~ubuntu20.04.1*%
%TF.CreationDate,2021-03-31T16:28:09+02:00*%
%TF.ProjectId,fuente1,6675656e-7465-4312-9e6b-696361645f70,rev?*%
%TF.SameCoordinates,Original*%
%TF.FileFunction,Legend,Top*%
%TF.FilePolarity,Positive*%
%FSLAX46Y46*%
G04 Gerber Fmt 4.6, Leading zero omitted, Abs format (unit mm)*
G04 Created by KiCad (PCBNEW 5.1.9-73d0e3b20d~88~ubuntu20.04.1) date 2021-03-31 16:28:09*
%MOMM*%
%LPD*%
G01*
G04 APERTURE LIST*
%ADD10C,0.120000*%
%ADD11C,0.150000*%
%ADD12C,0.250000*%
G04 APERTURE END LIST*
D10*
%TO.C,C1*%
X96290000Y-87630000D02*
G75*
G03*
X96290000Y-87630000I-11120000J0D01*
G01*
X85170000Y-98711000D02*
X85170000Y-76549000D01*
X85130000Y-98710000D02*
X85130000Y-76550000D01*
X85090000Y-98710000D02*
X85090000Y-76550000D01*
X85050000Y-98710000D02*
X85050000Y-76550000D01*
X85010000Y-98709000D02*
X85010000Y-76551000D01*
X84970000Y-98709000D02*
X84970000Y-76551000D01*
X84930000Y-98708000D02*
X84930000Y-76552000D01*
X84890000Y-98707000D02*
X84890000Y-76553000D01*
X84850000Y-98706000D02*
X84850000Y-76554000D01*
X84810000Y-98705000D02*
X84810000Y-76555000D01*
X84770000Y-98703000D02*
X84770000Y-76557000D01*
X84730000Y-98702000D02*
X84730000Y-76558000D01*
X84690000Y-98700000D02*
X84690000Y-76560000D01*
X84650000Y-98698000D02*
X84650000Y-76562000D01*
X84610000Y-98696000D02*
X84610000Y-76564000D01*
X84570000Y-98694000D02*
X84570000Y-76566000D01*
X84530000Y-98692000D02*
X84530000Y-76568000D01*
X84490000Y-98690000D02*
X84490000Y-76570000D01*
X84449000Y-98687000D02*
X84449000Y-76573000D01*
X84409000Y-98684000D02*
X84409000Y-76576000D01*
X84369000Y-98682000D02*
X84369000Y-76578000D01*
X84329000Y-98679000D02*
X84329000Y-76581000D01*
X84289000Y-98676000D02*
X84289000Y-76584000D01*
X84249000Y-98672000D02*
X84249000Y-76588000D01*
X84209000Y-98669000D02*
X84209000Y-76591000D01*
X84169000Y-98665000D02*
X84169000Y-76595000D01*
X84129000Y-98662000D02*
X84129000Y-76598000D01*
X84089000Y-98658000D02*
X84089000Y-76602000D01*
X84049000Y-98654000D02*
X84049000Y-76606000D01*
X84009000Y-98650000D02*
X84009000Y-76610000D01*
X83969000Y-98646000D02*
X83969000Y-76614000D01*
X83929000Y-98641000D02*
X83929000Y-76619000D01*
X83889000Y-98637000D02*
X83889000Y-76623000D01*
X83849000Y-98632000D02*
X83849000Y-76628000D01*
X83809000Y-98627000D02*
X83809000Y-76633000D01*
X83769000Y-98622000D02*
X83769000Y-76638000D01*
X83729000Y-98617000D02*
X83729000Y-76643000D01*
X83689000Y-98612000D02*
X83689000Y-76648000D01*
X83649000Y-98606000D02*
X83649000Y-76654000D01*
X83609000Y-98601000D02*
X83609000Y-76659000D01*
X83569000Y-98595000D02*
X83569000Y-76665000D01*
X83529000Y-98589000D02*
X83529000Y-76671000D01*
X83489000Y-98583000D02*
X83489000Y-76677000D01*
X83449000Y-98577000D02*
X83449000Y-76683000D01*
X83409000Y-98570000D02*
X83409000Y-76690000D01*
X83369000Y-98564000D02*
X83369000Y-76696000D01*
X83329000Y-98557000D02*
X83329000Y-76703000D01*
X83289000Y-98550000D02*
X83289000Y-76710000D01*
X83249000Y-98543000D02*
X83249000Y-76717000D01*
X83209000Y-98536000D02*
X83209000Y-76724000D01*
X83169000Y-98529000D02*
X83169000Y-76731000D01*
X83129000Y-98522000D02*
X83129000Y-76738000D01*
X83089000Y-98514000D02*
X83089000Y-76746000D01*
X83049000Y-98507000D02*
X83049000Y-76753000D01*
X83009000Y-98499000D02*
X83009000Y-76761000D01*
X82969000Y-98491000D02*
X82969000Y-76769000D01*
X82929000Y-98483000D02*
X82929000Y-76777000D01*
X82889000Y-98474000D02*
X82889000Y-76786000D01*
X82849000Y-98466000D02*
X82849000Y-76794000D01*
X82809000Y-98457000D02*
X82809000Y-76803000D01*
X82769000Y-98448000D02*
X82769000Y-76812000D01*
X82729000Y-98439000D02*
X82729000Y-76821000D01*
X82689000Y-98430000D02*
X82689000Y-76830000D01*
X82649000Y-98421000D02*
X82649000Y-76839000D01*
X82609000Y-98412000D02*
X82609000Y-76848000D01*
X82569000Y-98402000D02*
X82569000Y-76858000D01*
X82529000Y-98393000D02*
X82529000Y-76867000D01*
X82489000Y-98383000D02*
X82489000Y-76877000D01*
X82449000Y-98373000D02*
X82449000Y-76887000D01*
X82409000Y-98363000D02*
X82409000Y-89870000D01*
X82409000Y-85390000D02*
X82409000Y-76897000D01*
X82369000Y-98352000D02*
X82369000Y-89870000D01*
X82369000Y-85390000D02*
X82369000Y-76908000D01*
X82329000Y-98342000D02*
X82329000Y-89870000D01*
X82329000Y-85390000D02*
X82329000Y-76918000D01*
X82289000Y-98331000D02*
X82289000Y-89870000D01*
X82289000Y-85390000D02*
X82289000Y-76929000D01*
X82249000Y-98320000D02*
X82249000Y-89870000D01*
X82249000Y-85390000D02*
X82249000Y-76940000D01*
X82209000Y-98309000D02*
X82209000Y-89870000D01*
X82209000Y-85390000D02*
X82209000Y-76951000D01*
X82169000Y-98298000D02*
X82169000Y-89870000D01*
X82169000Y-85390000D02*
X82169000Y-76962000D01*
X82129000Y-98287000D02*
X82129000Y-89870000D01*
X82129000Y-85390000D02*
X82129000Y-76973000D01*
X82089000Y-98275000D02*
X82089000Y-89870000D01*
X82089000Y-85390000D02*
X82089000Y-76985000D01*
X82049000Y-98264000D02*
X82049000Y-89870000D01*
X82049000Y-85390000D02*
X82049000Y-76996000D01*
X82009000Y-98252000D02*
X82009000Y-89870000D01*
X82009000Y-85390000D02*
X82009000Y-77008000D01*
X81969000Y-98240000D02*
X81969000Y-89870000D01*
X81969000Y-85390000D02*
X81969000Y-77020000D01*
X81929000Y-98228000D02*
X81929000Y-89870000D01*
X81929000Y-85390000D02*
X81929000Y-77032000D01*
X81889000Y-98216000D02*
X81889000Y-89870000D01*
X81889000Y-85390000D02*
X81889000Y-77044000D01*
X81849000Y-98203000D02*
X81849000Y-89870000D01*
X81849000Y-85390000D02*
X81849000Y-77057000D01*
X81809000Y-98191000D02*
X81809000Y-89870000D01*
X81809000Y-85390000D02*
X81809000Y-77069000D01*
X81769000Y-98178000D02*
X81769000Y-89870000D01*
X81769000Y-85390000D02*
X81769000Y-77082000D01*
X81729000Y-98165000D02*
X81729000Y-89870000D01*
X81729000Y-85390000D02*
X81729000Y-77095000D01*
X81689000Y-98152000D02*
X81689000Y-89870000D01*
X81689000Y-85390000D02*
X81689000Y-77108000D01*
X81649000Y-98139000D02*
X81649000Y-89870000D01*
X81649000Y-85390000D02*
X81649000Y-77121000D01*
X81609000Y-98125000D02*
X81609000Y-89870000D01*
X81609000Y-85390000D02*
X81609000Y-77135000D01*
X81569000Y-98112000D02*
X81569000Y-89870000D01*
X81569000Y-85390000D02*
X81569000Y-77148000D01*
X81529000Y-98098000D02*
X81529000Y-89870000D01*
X81529000Y-85390000D02*
X81529000Y-77162000D01*
X81489000Y-98084000D02*
X81489000Y-89870000D01*
X81489000Y-85390000D02*
X81489000Y-77176000D01*
X81449000Y-98070000D02*
X81449000Y-89870000D01*
X81449000Y-85390000D02*
X81449000Y-77190000D01*
X81409000Y-98056000D02*
X81409000Y-89870000D01*
X81409000Y-85390000D02*
X81409000Y-77204000D01*
X81369000Y-98041000D02*
X81369000Y-89870000D01*
X81369000Y-85390000D02*
X81369000Y-77219000D01*
X81329000Y-98026000D02*
X81329000Y-89870000D01*
X81329000Y-85390000D02*
X81329000Y-77234000D01*
X81289000Y-98012000D02*
X81289000Y-89870000D01*
X81289000Y-85390000D02*
X81289000Y-77248000D01*
X81249000Y-97997000D02*
X81249000Y-89870000D01*
X81249000Y-85390000D02*
X81249000Y-77263000D01*
X81209000Y-97981000D02*
X81209000Y-89870000D01*
X81209000Y-85390000D02*
X81209000Y-77279000D01*
X81169000Y-97966000D02*
X81169000Y-89870000D01*
X81169000Y-85390000D02*
X81169000Y-77294000D01*
X81129000Y-97951000D02*
X81129000Y-89870000D01*
X81129000Y-85390000D02*
X81129000Y-77309000D01*
X81089000Y-97935000D02*
X81089000Y-89870000D01*
X81089000Y-85390000D02*
X81089000Y-77325000D01*
X81049000Y-97919000D02*
X81049000Y-89870000D01*
X81049000Y-85390000D02*
X81049000Y-77341000D01*
X81009000Y-97903000D02*
X81009000Y-89870000D01*
X81009000Y-85390000D02*
X81009000Y-77357000D01*
X80969000Y-97887000D02*
X80969000Y-89870000D01*
X80969000Y-85390000D02*
X80969000Y-77373000D01*
X80929000Y-97870000D02*
X80929000Y-89870000D01*
X80929000Y-85390000D02*
X80929000Y-77390000D01*
X80889000Y-97854000D02*
X80889000Y-89870000D01*
X80889000Y-85390000D02*
X80889000Y-77406000D01*
X80849000Y-97837000D02*
X80849000Y-89870000D01*
X80849000Y-85390000D02*
X80849000Y-77423000D01*
X80809000Y-97820000D02*
X80809000Y-89870000D01*
X80809000Y-85390000D02*
X80809000Y-77440000D01*
X80769000Y-97803000D02*
X80769000Y-89870000D01*
X80769000Y-85390000D02*
X80769000Y-77457000D01*
X80729000Y-97786000D02*
X80729000Y-89870000D01*
X80729000Y-85390000D02*
X80729000Y-77474000D01*
X80689000Y-97768000D02*
X80689000Y-89870000D01*
X80689000Y-85390000D02*
X80689000Y-77492000D01*
X80649000Y-97750000D02*
X80649000Y-89870000D01*
X80649000Y-85390000D02*
X80649000Y-77510000D01*
X80609000Y-97733000D02*
X80609000Y-89870000D01*
X80609000Y-85390000D02*
X80609000Y-77527000D01*
X80569000Y-97714000D02*
X80569000Y-89870000D01*
X80569000Y-85390000D02*
X80569000Y-77546000D01*
X80529000Y-97696000D02*
X80529000Y-89870000D01*
X80529000Y-85390000D02*
X80529000Y-77564000D01*
X80489000Y-97678000D02*
X80489000Y-89870000D01*
X80489000Y-85390000D02*
X80489000Y-77582000D01*
X80449000Y-97659000D02*
X80449000Y-89870000D01*
X80449000Y-85390000D02*
X80449000Y-77601000D01*
X80409000Y-97640000D02*
X80409000Y-89870000D01*
X80409000Y-85390000D02*
X80409000Y-77620000D01*
X80369000Y-97621000D02*
X80369000Y-89870000D01*
X80369000Y-85390000D02*
X80369000Y-77639000D01*
X80329000Y-97602000D02*
X80329000Y-89870000D01*
X80329000Y-85390000D02*
X80329000Y-77658000D01*
X80289000Y-97582000D02*
X80289000Y-89870000D01*
X80289000Y-85390000D02*
X80289000Y-77678000D01*
X80249000Y-97563000D02*
X80249000Y-89870000D01*
X80249000Y-85390000D02*
X80249000Y-77697000D01*
X80209000Y-97543000D02*
X80209000Y-89870000D01*
X80209000Y-85390000D02*
X80209000Y-77717000D01*
X80169000Y-97523000D02*
X80169000Y-89870000D01*
X80169000Y-85390000D02*
X80169000Y-77737000D01*
X80129000Y-97503000D02*
X80129000Y-89870000D01*
X80129000Y-85390000D02*
X80129000Y-77757000D01*
X80089000Y-97482000D02*
X80089000Y-89870000D01*
X80089000Y-85390000D02*
X80089000Y-77778000D01*
X80049000Y-97462000D02*
X80049000Y-89870000D01*
X80049000Y-85390000D02*
X80049000Y-77798000D01*
X80009000Y-97441000D02*
X80009000Y-89870000D01*
X80009000Y-85390000D02*
X80009000Y-77819000D01*
X79969000Y-97420000D02*
X79969000Y-89870000D01*
X79969000Y-85390000D02*
X79969000Y-77840000D01*
X79929000Y-97398000D02*
X79929000Y-89870000D01*
X79929000Y-85390000D02*
X79929000Y-77862000D01*
X79889000Y-97377000D02*
X79889000Y-89870000D01*
X79889000Y-85390000D02*
X79889000Y-77883000D01*
X79849000Y-97355000D02*
X79849000Y-89870000D01*
X79849000Y-85390000D02*
X79849000Y-77905000D01*
X79809000Y-97333000D02*
X79809000Y-89870000D01*
X79809000Y-85390000D02*
X79809000Y-77927000D01*
X79769000Y-97311000D02*
X79769000Y-89870000D01*
X79769000Y-85390000D02*
X79769000Y-77949000D01*
X79729000Y-97289000D02*
X79729000Y-89870000D01*
X79729000Y-85390000D02*
X79729000Y-77971000D01*
X79689000Y-97266000D02*
X79689000Y-89870000D01*
X79689000Y-85390000D02*
X79689000Y-77994000D01*
X79649000Y-97244000D02*
X79649000Y-89870000D01*
X79649000Y-85390000D02*
X79649000Y-78016000D01*
X79609000Y-97221000D02*
X79609000Y-89870000D01*
X79609000Y-85390000D02*
X79609000Y-78039000D01*
X79569000Y-97197000D02*
X79569000Y-89870000D01*
X79569000Y-85390000D02*
X79569000Y-78063000D01*
X79529000Y-97174000D02*
X79529000Y-89870000D01*
X79529000Y-85390000D02*
X79529000Y-78086000D01*
X79489000Y-97150000D02*
X79489000Y-89870000D01*
X79489000Y-85390000D02*
X79489000Y-78110000D01*
X79449000Y-97127000D02*
X79449000Y-89870000D01*
X79449000Y-85390000D02*
X79449000Y-78133000D01*
X79409000Y-97102000D02*
X79409000Y-89870000D01*
X79409000Y-85390000D02*
X79409000Y-78158000D01*
X79369000Y-97078000D02*
X79369000Y-89870000D01*
X79369000Y-85390000D02*
X79369000Y-78182000D01*
X79329000Y-97054000D02*
X79329000Y-89870000D01*
X79329000Y-85390000D02*
X79329000Y-78206000D01*
X79289000Y-97029000D02*
X79289000Y-89870000D01*
X79289000Y-85390000D02*
X79289000Y-78231000D01*
X79249000Y-97004000D02*
X79249000Y-89870000D01*
X79249000Y-85390000D02*
X79249000Y-78256000D01*
X79209000Y-96978000D02*
X79209000Y-89870000D01*
X79209000Y-85390000D02*
X79209000Y-78282000D01*
X79169000Y-96953000D02*
X79169000Y-89870000D01*
X79169000Y-85390000D02*
X79169000Y-78307000D01*
X79129000Y-96927000D02*
X79129000Y-89870000D01*
X79129000Y-85390000D02*
X79129000Y-78333000D01*
X79089000Y-96901000D02*
X79089000Y-89870000D01*
X79089000Y-85390000D02*
X79089000Y-78359000D01*
X79049000Y-96875000D02*
X79049000Y-89870000D01*
X79049000Y-85390000D02*
X79049000Y-78385000D01*
X79009000Y-96848000D02*
X79009000Y-89870000D01*
X79009000Y-85390000D02*
X79009000Y-78412000D01*
X78969000Y-96822000D02*
X78969000Y-89870000D01*
X78969000Y-85390000D02*
X78969000Y-78438000D01*
X78929000Y-96795000D02*
X78929000Y-89870000D01*
X78929000Y-85390000D02*
X78929000Y-78465000D01*
X78889000Y-96767000D02*
X78889000Y-89870000D01*
X78889000Y-85390000D02*
X78889000Y-78493000D01*
X78849000Y-96740000D02*
X78849000Y-89870000D01*
X78849000Y-85390000D02*
X78849000Y-78520000D01*
X78809000Y-96712000D02*
X78809000Y-89870000D01*
X78809000Y-85390000D02*
X78809000Y-78548000D01*
X78769000Y-96684000D02*
X78769000Y-89870000D01*
X78769000Y-85390000D02*
X78769000Y-78576000D01*
X78729000Y-96656000D02*
X78729000Y-89870000D01*
X78729000Y-85390000D02*
X78729000Y-78604000D01*
X78689000Y-96627000D02*
X78689000Y-89870000D01*
X78689000Y-85390000D02*
X78689000Y-78633000D01*
X78649000Y-96598000D02*
X78649000Y-89870000D01*
X78649000Y-85390000D02*
X78649000Y-78662000D01*
X78609000Y-96569000D02*
X78609000Y-89870000D01*
X78609000Y-85390000D02*
X78609000Y-78691000D01*
X78569000Y-96540000D02*
X78569000Y-89870000D01*
X78569000Y-85390000D02*
X78569000Y-78720000D01*
X78529000Y-96510000D02*
X78529000Y-89870000D01*
X78529000Y-85390000D02*
X78529000Y-78750000D01*
X78489000Y-96480000D02*
X78489000Y-89870000D01*
X78489000Y-85390000D02*
X78489000Y-78780000D01*
X78449000Y-96450000D02*
X78449000Y-89870000D01*
X78449000Y-85390000D02*
X78449000Y-78810000D01*
X78409000Y-96420000D02*
X78409000Y-89870000D01*
X78409000Y-85390000D02*
X78409000Y-78840000D01*
X78369000Y-96389000D02*
X78369000Y-89870000D01*
X78369000Y-85390000D02*
X78369000Y-78871000D01*
X78329000Y-96358000D02*
X78329000Y-89870000D01*
X78329000Y-85390000D02*
X78329000Y-78902000D01*
X78289000Y-96327000D02*
X78289000Y-89870000D01*
X78289000Y-85390000D02*
X78289000Y-78933000D01*
X78249000Y-96295000D02*
X78249000Y-89870000D01*
X78249000Y-85390000D02*
X78249000Y-78965000D01*
X78209000Y-96263000D02*
X78209000Y-89870000D01*
X78209000Y-85390000D02*
X78209000Y-78997000D01*
X78169000Y-96231000D02*
X78169000Y-89870000D01*
X78169000Y-85390000D02*
X78169000Y-79029000D01*
X78129000Y-96198000D02*
X78129000Y-89870000D01*
X78129000Y-85390000D02*
X78129000Y-79062000D01*
X78089000Y-96165000D02*
X78089000Y-89870000D01*
X78089000Y-85390000D02*
X78089000Y-79095000D01*
X78049000Y-96132000D02*
X78049000Y-89870000D01*
X78049000Y-85390000D02*
X78049000Y-79128000D01*
X78009000Y-96099000D02*
X78009000Y-89870000D01*
X78009000Y-85390000D02*
X78009000Y-79161000D01*
X77969000Y-96065000D02*
X77969000Y-89870000D01*
X77969000Y-85390000D02*
X77969000Y-79195000D01*
X77929000Y-96031000D02*
X77929000Y-79229000D01*
X77889000Y-95996000D02*
X77889000Y-79264000D01*
X77849000Y-95961000D02*
X77849000Y-79299000D01*
X77809000Y-95926000D02*
X77809000Y-79334000D01*
X77769000Y-95891000D02*
X77769000Y-79369000D01*
X77729000Y-95855000D02*
X77729000Y-79405000D01*
X77689000Y-95819000D02*
X77689000Y-79441000D01*
X77649000Y-95782000D02*
X77649000Y-79478000D01*
X77609000Y-95745000D02*
X77609000Y-79515000D01*
X77569000Y-95708000D02*
X77569000Y-79552000D01*
X77529000Y-95670000D02*
X77529000Y-79590000D01*
X77489000Y-95632000D02*
X77489000Y-79628000D01*
X77449000Y-95594000D02*
X77449000Y-79666000D01*
X77409000Y-95555000D02*
X77409000Y-79705000D01*
X77369000Y-95516000D02*
X77369000Y-79744000D01*
X77329000Y-95476000D02*
X77329000Y-79784000D01*
X77289000Y-95437000D02*
X77289000Y-79823000D01*
X77249000Y-95396000D02*
X77249000Y-79864000D01*
X77209000Y-95355000D02*
X77209000Y-79905000D01*
X77169000Y-95314000D02*
X77169000Y-79946000D01*
X77129000Y-95272000D02*
X77129000Y-79988000D01*
X77089000Y-95230000D02*
X77089000Y-80030000D01*
X77049000Y-95188000D02*
X77049000Y-80072000D01*
X77009000Y-95145000D02*
X77009000Y-80115000D01*
X76970000Y-95101000D02*
X76970000Y-80159000D01*
X76930000Y-95058000D02*
X76930000Y-80202000D01*
X76890000Y-95013000D02*
X76890000Y-80247000D01*
X76850000Y-94968000D02*
X76850000Y-80292000D01*
X76810000Y-94923000D02*
X76810000Y-80337000D01*
X76770000Y-94877000D02*
X76770000Y-80383000D01*
X76730000Y-94831000D02*
X76730000Y-80429000D01*
X76690000Y-94784000D02*
X76690000Y-80476000D01*
X76650000Y-94736000D02*
X76650000Y-80524000D01*
X76610000Y-94688000D02*
X76610000Y-80572000D01*
X76570000Y-94640000D02*
X76570000Y-80620000D01*
X76530000Y-94591000D02*
X76530000Y-80669000D01*
X76490000Y-94541000D02*
X76490000Y-80719000D01*
X76450000Y-94491000D02*
X76450000Y-80769000D01*
X76410000Y-94440000D02*
X76410000Y-80820000D01*
X76370000Y-94389000D02*
X76370000Y-80871000D01*
X76330000Y-94337000D02*
X76330000Y-80923000D01*
X76290000Y-94284000D02*
X76290000Y-80976000D01*
X76250000Y-94230000D02*
X76250000Y-81030000D01*
X76210000Y-94176000D02*
X76210000Y-81084000D01*
X76170000Y-94122000D02*
X76170000Y-81138000D01*
X76130000Y-94066000D02*
X76130000Y-81194000D01*
X76090000Y-94010000D02*
X76090000Y-81250000D01*
X76050000Y-93953000D02*
X76050000Y-81307000D01*
X76010000Y-93895000D02*
X76010000Y-81365000D01*
X75970000Y-93837000D02*
X75970000Y-81423000D01*
X75930000Y-93777000D02*
X75930000Y-81483000D01*
X75890000Y-93717000D02*
X75890000Y-81543000D01*
X75850000Y-93656000D02*
X75850000Y-81604000D01*
X75810000Y-93594000D02*
X75810000Y-81666000D01*
X75770000Y-93531000D02*
X75770000Y-81729000D01*
X75730000Y-93468000D02*
X75730000Y-81792000D01*
X75690000Y-93403000D02*
X75690000Y-81857000D01*
X75650000Y-93337000D02*
X75650000Y-81923000D01*
X75610000Y-93270000D02*
X75610000Y-81990000D01*
X75570000Y-93202000D02*
X75570000Y-82058000D01*
X75530000Y-93133000D02*
X75530000Y-82127000D01*
X75490000Y-93063000D02*
X75490000Y-82197000D01*
X75450000Y-92992000D02*
X75450000Y-82268000D01*
X75410000Y-92919000D02*
X75410000Y-82341000D01*
X75370000Y-92845000D02*
X75370000Y-82415000D01*
X75330000Y-92770000D02*
X75330000Y-82490000D01*
X75290000Y-92693000D02*
X75290000Y-82567000D01*
X75250000Y-92615000D02*
X75250000Y-82645000D01*
X75210000Y-92535000D02*
X75210000Y-82725000D01*
X75170000Y-92454000D02*
X75170000Y-82806000D01*
X75130000Y-92371000D02*
X75130000Y-82889000D01*
X75090000Y-92286000D02*
X75090000Y-82974000D01*
X75050000Y-92199000D02*
X75050000Y-83061000D01*
X75010000Y-92110000D02*
X75010000Y-83150000D01*
X74970000Y-92019000D02*
X74970000Y-83241000D01*
X74930000Y-91926000D02*
X74930000Y-83334000D01*
X74890000Y-91830000D02*
X74890000Y-83430000D01*
X74850000Y-91732000D02*
X74850000Y-83528000D01*
X74810000Y-91631000D02*
X74810000Y-83629000D01*
X74770000Y-91527000D02*
X74770000Y-83733000D01*
X74730000Y-91419000D02*
X74730000Y-83841000D01*
X74690000Y-91309000D02*
X74690000Y-83951000D01*
X74650000Y-91194000D02*
X74650000Y-84066000D01*
X74610000Y-91075000D02*
X74610000Y-84185000D01*
X74570000Y-90951000D02*
X74570000Y-84309000D01*
X74530000Y-90822000D02*
X74530000Y-84438000D01*
X74490000Y-90688000D02*
X74490000Y-84572000D01*
X74450000Y-90546000D02*
X74450000Y-84714000D01*
X74410000Y-90397000D02*
X74410000Y-84863000D01*
X74370000Y-90239000D02*
X74370000Y-85021000D01*
X74330000Y-90070000D02*
X74330000Y-85190000D01*
X74290000Y-89888000D02*
X74290000Y-85372000D01*
X74250000Y-89690000D02*
X74250000Y-85570000D01*
X74210000Y-89470000D02*
X74210000Y-85790000D01*
X74170000Y-89220000D02*
X74170000Y-86040000D01*
X74130000Y-88922000D02*
X74130000Y-86338000D01*
X74090000Y-88533000D02*
X74090000Y-86727000D01*
X74050000Y-87670000D02*
X74050000Y-87590000D01*
X97069337Y-93865000D02*
X94869337Y-93865000D01*
X95969337Y-94965000D02*
X95969337Y-92765000D01*
%TO.C,D1*%
X68020001Y-84730000D02*
X68020001Y-90530000D01*
X68020001Y-90530000D02*
X35820001Y-90530000D01*
X35820001Y-90530000D02*
X35820001Y-84730000D01*
X35820001Y-84730000D02*
X68020001Y-84730000D01*
X39870001Y-84730000D02*
X39870001Y-86130000D01*
X39870001Y-90530000D02*
X39870001Y-89130000D01*
X35620001Y-85930000D02*
X35620001Y-84530000D01*
X35620001Y-84530000D02*
X36920001Y-84530000D01*
%TO.C,F1*%
X37090000Y-92990000D02*
X37090000Y-95790000D01*
X37090000Y-99790000D02*
X37090000Y-102590000D01*
X59690000Y-99790000D02*
X59690000Y-102590000D01*
X59690000Y-102590000D02*
X37090000Y-102590000D01*
X59690000Y-92990000D02*
X37090000Y-92990000D01*
X59690000Y-92990000D02*
X59690000Y-95790000D01*
%TO.C,C1*%
D11*
X85003333Y-100237142D02*
X84955714Y-100284761D01*
X84812857Y-100332380D01*
X84717619Y-100332380D01*
X84574761Y-100284761D01*
X84479523Y-100189523D01*
X84431904Y-100094285D01*
X84384285Y-99903809D01*
X84384285Y-99760952D01*
X84431904Y-99570476D01*
X84479523Y-99475238D01*
X84574761Y-99380000D01*
X84717619Y-99332380D01*
X84812857Y-99332380D01*
X84955714Y-99380000D01*
X85003333Y-99427619D01*
X85955714Y-100332380D02*
X85384285Y-100332380D01*
X85670000Y-100332380D02*
X85670000Y-99332380D01*
X85574761Y-99475238D01*
X85479523Y-99570476D01*
X85384285Y-99618095D01*
%TO.C,D1*%
X51331904Y-83652379D02*
X51331904Y-82652379D01*
X51570000Y-82652379D01*
X51712857Y-82699999D01*
X51808095Y-82795237D01*
X51855714Y-82890475D01*
X51903333Y-83080951D01*
X51903333Y-83223808D01*
X51855714Y-83414284D01*
X51808095Y-83509522D01*
X51712857Y-83604760D01*
X51570000Y-83652379D01*
X51331904Y-83652379D01*
X52855714Y-83652379D02*
X52284285Y-83652379D01*
X52570000Y-83652379D02*
X52570000Y-82652379D01*
X52474761Y-82795237D01*
X52379523Y-82890475D01*
X52284285Y-82938094D01*
D12*
X40309048Y-87701428D02*
X41070953Y-87701428D01*
X40690001Y-88082380D02*
X40690001Y-87320476D01*
X63169048Y-87701428D02*
X63930953Y-87701428D01*
X57731905Y-86526666D02*
X58208096Y-86526666D01*
X57636667Y-86812380D02*
X57970001Y-85812380D01*
X58303334Y-86812380D01*
X59208096Y-86717142D02*
X59160477Y-86764761D01*
X59017620Y-86812380D01*
X58922381Y-86812380D01*
X58779524Y-86764761D01*
X58684286Y-86669523D01*
X58636667Y-86574285D01*
X58589048Y-86383809D01*
X58589048Y-86240952D01*
X58636667Y-86050476D01*
X58684286Y-85955238D01*
X58779524Y-85860000D01*
X58922381Y-85812380D01*
X59017620Y-85812380D01*
X59160477Y-85860000D01*
X59208096Y-85907619D01*
X45031905Y-86526666D02*
X45508096Y-86526666D01*
X44936667Y-86812380D02*
X45270001Y-85812380D01*
X45603334Y-86812380D01*
X46508096Y-86717142D02*
X46460477Y-86764761D01*
X46317620Y-86812380D01*
X46222381Y-86812380D01*
X46079524Y-86764761D01*
X45984286Y-86669523D01*
X45936667Y-86574285D01*
X45889048Y-86383809D01*
X45889048Y-86240952D01*
X45936667Y-86050476D01*
X45984286Y-85955238D01*
X46079524Y-85860000D01*
X46222381Y-85812380D01*
X46317620Y-85812380D01*
X46460477Y-85860000D01*
X46508096Y-85907619D01*
%TO.C,F1*%
D11*
X48106666Y-103718571D02*
X47773333Y-103718571D01*
X47773333Y-104242380D02*
X47773333Y-103242380D01*
X48249523Y-103242380D01*
X49154285Y-104242380D02*
X48582857Y-104242380D01*
X48868571Y-104242380D02*
X48868571Y-103242380D01*
X48773333Y-103385238D01*
X48678095Y-103480476D01*
X48582857Y-103528095D01*
%TO.C,J1*%
X51646666Y-73522380D02*
X51646666Y-74236666D01*
X51599047Y-74379523D01*
X51503809Y-74474761D01*
X51360952Y-74522380D01*
X51265714Y-74522380D01*
X52646666Y-74522380D02*
X52075238Y-74522380D01*
X52360952Y-74522380D02*
X52360952Y-73522380D01*
X52265714Y-73665238D01*
X52170476Y-73760476D01*
X52075238Y-73808095D01*
%TO.C,J2*%
X70106666Y-95112380D02*
X70106666Y-95826666D01*
X70059047Y-95969523D01*
X69963809Y-96064761D01*
X69820952Y-96112380D01*
X69725714Y-96112380D01*
X70535238Y-95207619D02*
X70582857Y-95160000D01*
X70678095Y-95112380D01*
X70916190Y-95112380D01*
X71011428Y-95160000D01*
X71059047Y-95207619D01*
X71106666Y-95302857D01*
X71106666Y-95398095D01*
X71059047Y-95540952D01*
X70487619Y-96112380D01*
X71106666Y-96112380D01*
%TD*%
M02*
